<?xml version="1.0" encoding="UTF-8" standalone="no"?>
<svg width="21px" height="21px" viewBox="0 0 21 21" version="1.1" xmlns="http://www.w3.org/2000/svg" xmlns:xlink="http://www.w3.org/1999/xlink">
    <!-- Generator: Sketch 40.3 (33839) - http://www.bohemiancoding.com/sketch -->
    <title>首页焦点@2x</title>
    <desc>Created with Sketch.</desc>
    <defs></defs>
    <g id="Symbols" stroke="none" stroke-width="1" fill="none" fill-rule="evenodd">
        <g id="footer_icon_home_pressed" transform="translate(-5.000000, -7.000000)" stroke="#ED4040">
            <g id="首页焦点">
                <path d="M20.6333916,12.4473973 L16.2378878,8.37616779 C15.8297726,7.99816096 15.1696842,7.99872523 14.7621782,8.37616779 L6.71026873,15.834055 C5.89769887,16.5866783 6.13790263,17.1955791 7.24515283,17.1955791 L8.17514315,17.1955791 L8.17514315,26.0076735 C8.17514315,26.5488521 8.62617986,27 9.18256183,27 L21.8244874,27 C22.3771862,27 22.8319061,26.5557203 22.8319061,26.0076735 L22.8319061,17.1955791 L23.7549132,17.1955791 C24.8648769,17.1955791 25.1016392,16.586004 24.2897973,15.834055 L22.8319061,14.4837184 L22.8319061,12.2639605 C22.8319061,11.6525364 22.3397518,11.1619475 21.7326488,11.1619475 C21.1213132,11.1619475 20.6333916,11.6553355 20.6333916,12.2639605 L20.6333916,12.4473973 Z" id="Home-Icon"></path>
            </g>
        </g>
    </g>
</svg>